# xmcd
#
# Track frame offsets:
#	150
#	23425
#	66652
#	115114
#	143566
#	182672
#	203423
#
# Disc length: 3241 seconds
#
# Revision: 2
# Processed by: cddbd v1.4PL0 Copyright (c) Steve Scherf et al.
# Submitted via: CDmax 1.8
#
DISCID=560ca707
DTITLE=Elliott Sharp's Terraplane - Blues For Next vol.2 "Quartet"
DYEAR=1900
DGENRE=
TTITLE0=Work or Leave
TTITLE1=Twistin
TTITLE2=Rails
TTITLE3=Like Showers of Rain
TTITLE4=Diallo Blues
TTITLE5=Othar
TTITLE6=Clank
EXTD=
EXTT0=
EXTT1=
EXTT2=
EXTT3=
EXTT4=
EXTT5=
EXTT6=
PLAYORDER=
